<?xml version="1.0" encoding="iso-8859-1"?>
<!-- Generator: Adobe Illustrator 19.1.0, SVG Export Plug-In . SVG Version: 6.00 Build 0)  -->
<svg version="1.1"  xmlns="http://www.w3.org/2000/svg" xmlns:xlink="http://www.w3.org/1999/xlink" x="0px" y="0px"
	 viewBox="0 0 48 48" style="enable-background:new 0 0 48 48;" xml:space="preserve">
<path style="fill:#F57C00;" d="M30,13h13V9c0-2.209-1.791-4-4-4h-9V13z"/>
<path style="fill:#FFB74D;" d="M39,5H15c-2.209,0-4,1.791-4,4v18l3,1l-3,1v10c0,2.209,1.791,4,4,4h16c2.209,0,4-1.791,4-4v-4l-4-1
	l4-1V22l-2-1l2-1v-1l-5-1l5-1V9C35,6.791,36.791,5,39,5z"/>
<path style="fill:#F57C00;" d="M31,43H9c-2.209,0-4-1.791-4-4v-3h22v3C27,41.209,28.791,43,31,43z"/>
<rect x="17" y="14" style="fill:#FB8C00;" width="12" height="2"/>
<rect x="17" y="19" style="fill:#FB8C00;" width="8" height="2"/>
<rect x="17" y="24" style="fill:#FB8C00;" width="12" height="2"/>
<rect x="17" y="29" style="fill:#FB8C00;" width="8" height="2"/>
</svg>
